<svg xmlns="http://www.w3.org/2000/svg" xmlns:xlink="http://www.w3.org/1999/xlink" viewBox="0 0 178.09 53.7"><defs><style>.a{fill:url(#a);}.b{fill:url(#b);}.c{fill:url(#c);}.d{fill:url(#d);}.e{fill:url(#e);}.f{fill:url(#f);}.g{fill:url(#g);}.h{fill:url(#h);}.i{fill:#0cc;}</style><radialGradient id="a" cx="41.06" cy="46.22" r="7.48" gradientUnits="userSpaceOnUse"><stop offset="0" stop-color="#60dfdf"/><stop offset="0.29" stop-color="#43d9d9"/><stop offset="1" stop-color="#0cc"/></radialGradient><radialGradient id="b" cx="29.76" cy="39.05" r="6.54" xlink:href="#a"/><radialGradient id="c" cx="38.92" cy="34.65" r="4.11" xlink:href="#a"/><linearGradient id="d" x1="-10.33" y1="39.89" x2="22.41" y2="55.07" gradientUnits="userSpaceOnUse"><stop offset="0.05" stop-color="#fff"/><stop offset="0.06" stop-color="#fcfefe"/><stop offset="0.33" stop-color="#a4eded"/><stop offset="0.57" stop-color="#5edfdf"/><stop offset="0.77" stop-color="#2bd5d5"/><stop offset="0.92" stop-color="#0ccece"/><stop offset="1" stop-color="#0cc"/></linearGradient><linearGradient id="e" x1="8.29" y1="24.48" x2="45.79" y2="10.73" xlink:href="#d"/><linearGradient id="f" x1="22.42" y1="16.23" x2="62.81" y2="16.23" gradientUnits="userSpaceOnUse"><stop offset="0.2" stop-color="#0cc"/><stop offset="1" stop-color="#fff"/></linearGradient><linearGradient id="g" x1="-9.84" y1="28.43" x2="27.59" y2="17" gradientUnits="userSpaceOnUse"><stop offset="0" stop-color="#fff"/><stop offset="0.11" stop-color="#dcf8f8"/><stop offset="0.36" stop-color="#8fe9e9"/><stop offset="0.58" stop-color="#51dcdc"/><stop offset="0.77" stop-color="#25d3d3"/><stop offset="0.91" stop-color="#0acece"/><stop offset="1" stop-color="#0cc"/></linearGradient><linearGradient id="h" x1="11.75" y1="11.21" x2="29.65" y2="11.21" gradientUnits="userSpaceOnUse"><stop offset="0" stop-color="#0cc"/><stop offset="1" stop-color="#fff"/></linearGradient></defs><path class="a" d="M37.58,39.66h0a7.71,7.71,0,0,0-1.64,1.1l.51,1.42a6.2,6.2,0,0,0-.89,1.23l-1.6.13a7.23,7.23,0,0,0-.47,1.77l1.33.77a5.77,5.77,0,0,0,.19,1.7l-1.12,1.08a7.43,7.43,0,0,0,.37.81,6.53,6.53,0,0,0,.46.77l1.55-.24a6.64,6.64,0,0,0,1.29,1.14l-.13,1.5a7.64,7.64,0,0,0,1.74.67l1.05-1.19a6.52,6.52,0,0,0,1.53,0l.89,1.23a7.43,7.43,0,0,0,1.87-.65h0l0-1.6a5.71,5.71,0,0,0,.93-.76L47,51a7.27,7.27,0,0,0,1.09-1.81l-1-1.24a5.4,5.4,0,0,0,.18-.89l1.44-.66a7.08,7.08,0,0,0-.31-2.17l-1.59-.29c0-.13-.11-.25-.17-.37s-.13-.24-.2-.35l.68-1.44a7.48,7.48,0,0,0-1.61-1.52L44.06,41a6.53,6.53,0,0,0-.85-.39l-.42-1.54a7.69,7.69,0,0,0-2.14-.19l-.56,1.42a6.35,6.35,0,0,0-1.18.29Zm5.93,5.41a2.76,2.76,0,0,1-1.25,3.76,2.89,2.89,0,0,1-3.86-1.22,2.77,2.77,0,0,1,1.25-3.77A2.91,2.91,0,0,1,43.51,45.07Z"/><path class="b" d="M26.71,33.32h0a6.69,6.69,0,0,0-1.44,1l.44,1.25a5.68,5.68,0,0,0-.77,1.07l-1.4.12a6.27,6.27,0,0,0-.42,1.54l1.17.68a5,5,0,0,0,.16,1.49l-1,.94a7.55,7.55,0,0,0,.32.72,6.68,6.68,0,0,0,.41.67l1.35-.22a5.39,5.39,0,0,0,1.14,1l-.12,1.32a6.81,6.81,0,0,0,1.52.58l.92-1a5.46,5.46,0,0,0,1.34,0l.78,1.08a6.8,6.8,0,0,0,1.64-.57h0l0-1.39a5.33,5.33,0,0,0,.82-.67l1.31.35a6.28,6.28,0,0,0,1-1.58L35,40.55a5.27,5.27,0,0,0,.16-.79l1.26-.57a6.24,6.24,0,0,0-.27-1.9L34.74,37a3.18,3.18,0,0,0-.16-.32,3.07,3.07,0,0,0-.17-.31l.6-1.26a6.58,6.58,0,0,0-1.42-1.32l-1.21.66a5.46,5.46,0,0,0-.74-.34l-.37-1.35a6.94,6.94,0,0,0-1.88-.17l-.48,1.24a5.36,5.36,0,0,0-1,.26ZM31.9,38a2.42,2.42,0,0,1-1.1,3.3,2.53,2.53,0,0,1-3.37-1.07A2.43,2.43,0,0,1,28.52,37,2.55,2.55,0,0,1,31.9,38Z"/><path class="c" d="M37,31.05h0a4.32,4.32,0,0,0-.9.61l.28.78a3.6,3.6,0,0,0-.49.67l-.88.08a4.47,4.47,0,0,0-.26,1l.73.42a3.25,3.25,0,0,0,.11.93l-.62.6c.06.15.13.3.2.45a4.28,4.28,0,0,0,.26.42l.85-.14a3.25,3.25,0,0,0,.71.63l-.07.83a4.44,4.44,0,0,0,1,.37l.57-.66a3.45,3.45,0,0,0,.85,0l.48.68a4.32,4.32,0,0,0,1-.35h0v-.88a3.48,3.48,0,0,0,.52-.41l.83.22a4.09,4.09,0,0,0,.6-1l-.57-.68a2.84,2.84,0,0,0,.1-.49l.79-.36a3.83,3.83,0,0,0-.17-1.2l-.87-.16a1.24,1.24,0,0,0-.1-.2,2,2,0,0,0-.11-.2l.38-.78a4.16,4.16,0,0,0-.89-.84l-.76.42a2.86,2.86,0,0,0-.47-.22l-.23-.84a4.26,4.26,0,0,0-1.18-.11l-.31.78a3.75,3.75,0,0,0-.64.16Zm3.26,3a1.52,1.52,0,0,1-.68,2.07,1.6,1.6,0,0,1-2.13-.67,1.53,1.53,0,0,1,.69-2.07A1.58,1.58,0,0,1,40.26,34Z"/><path class="d" d="M0,53.43H8.11a3.63,3.63,0,0,0,3.16-2.14l3.29-8.6S2.4,47.07,0,53.43Z"/><path class="e" d="M24.74,14.56c5.17,5.84,6.4,12.06,4,14.81-1.4,1.63-4.07,1.61-4,1.73s11.15.84,14.72-4.22c0,0-2.44-6.75-4.59-11.92-1.45-3.52-3.95-10.29-5.22-13.59Q27.19,8,24.74,14.56Z"/><path class="f" d="M24.74,31.1c.24,0,11.65-1.94,0-16.54V14.5L29.65,1.37l4.68,12.24S38.56,30,24.74,31.1Z"/><path class="g" d="M29.65,1.37,19.22,29.26C16.11,36.33,7.68,34,3.87,42.61l7.88-20.19.07-.17L19.59,2.34A4.91,4.91,0,0,1,23.89,0h5.23Z"/><path class="h" d="M29.12,0l.53,1.37a19,19,0,0,0-7.81,5.85,77.69,77.69,0,0,0-10.09,15.2l.07-.17,7.4-19.14a3.69,3.69,0,0,1,.37-.77,3.87,3.87,0,0,1,.28-.43,5,5,0,0,1,4-1.91Z"/><path class="i" d="M71.77,0,85.23,30.77H81.41l-3.84-9.08H66l-3.84,9.08H58.35Zm0,7.78-4.71,10.9h9.42Z"/><path class="i" d="M90.6,30.77V1.17h3.52V27.41H105.3v3.36Z"/><path class="i" d="M128.07,15.49h12.21v1q0,7-4,11t-10.82,4a17.07,17.07,0,0,1-4-.44A15,15,0,0,1,118,29.82a14.24,14.24,0,0,1-5.62-5.53,16.08,16.08,0,0,1-2-8,18,18,0,0,1,1.19-6.68,14.49,14.49,0,0,1,3.56-5.24,13.3,13.3,0,0,1,4.65-2.87,16.87,16.87,0,0,1,5.86-1,16.54,16.54,0,0,1,7.4,1.54,13.25,13.25,0,0,1,5.2,4.66l-3,2.37a10.87,10.87,0,0,0-4-4,11,11,0,0,0-5.53-1.35,10.86,10.86,0,0,0-8.37,3.48,12.84,12.84,0,0,0-3.22,9.09,12,12,0,0,0,3.27,8.7,11,11,0,0,0,8.32,3.39,10.56,10.56,0,0,0,7.4-2.7,10.14,10.14,0,0,0,3.29-7h-8.45Z"/><path class="i" d="M178.09,16a15.36,15.36,0,0,1-1.17,6,14.87,14.87,0,0,1-3.42,5,16.17,16.17,0,0,1-11.23,4.54,15.76,15.76,0,0,1-6-1.18A16,16,0,0,1,151.09,27a15.06,15.06,0,0,1-4.63-11,15.11,15.11,0,0,1,4.63-11,15.6,15.6,0,0,1,5.14-3.33,16,16,0,0,1,6-1.17,16.2,16.2,0,0,1,6.08,1.17A15.64,15.64,0,0,1,173.5,5a14.91,14.91,0,0,1,3.42,5A15.51,15.51,0,0,1,178.09,16ZM162.27,28.24a12,12,0,0,0,4.63-.92,12.24,12.24,0,0,0,3.95-2.68A12,12,0,0,0,174.41,16a12.42,12.42,0,0,0-.92-4.73,11.85,11.85,0,0,0-2.64-4,11.93,11.93,0,0,0-8.58-3.56,12.26,12.26,0,0,0-4.67.91,11.59,11.59,0,0,0-3.9,2.65,12.07,12.07,0,0,0-2.65,4,12.23,12.23,0,0,0-.91,4.71,12.36,12.36,0,0,0,7.51,11.3A11.79,11.79,0,0,0,162.27,28.24Z"/><path class="i" d="M62,53.16a3.9,3.9,0,0,1-1.61-1.53,4.39,4.39,0,0,1-.58-2.28V44a4.29,4.29,0,0,1,.58-2.25A3.94,3.94,0,0,1,62,40.18a5.2,5.2,0,0,1,2.42-.54,5.28,5.28,0,0,1,2.41.53,4,4,0,0,1,1.62,1.49A4.27,4.27,0,0,1,69,43.88c0,.11-.08.19-.25.21l-.88.06h-.06a.23.23,0,0,1-.14,0s-.06,0-.06-.08v-.12a2.9,2.9,0,0,0-.88-2.22,3.68,3.68,0,0,0-4.67,0,2.91,2.91,0,0,0-.88,2.21V49.4A2.92,2.92,0,0,0,62,51.62a3.68,3.68,0,0,0,4.67,0,2.91,2.91,0,0,0,.88-2.23c0-.15.09-.22.26-.21l.88,0c.17,0,.25,0,.25.1v.09a4.35,4.35,0,0,1-.57,2.25,3.91,3.91,0,0,1-1.62,1.5,5.28,5.28,0,0,1-2.41.53A5.2,5.2,0,0,1,62,53.16Z"/><path class="i" d="M73.4,53.27V40.05a.22.22,0,0,1,.25-.25h.88c.17,0,.26.08.26.25V52.21c0,.07,0,.1.1.1h6.84a.22.22,0,0,1,.25.25v.71a.22.22,0,0,1-.25.25H73.65A.22.22,0,0,1,73.4,53.27Z"/><path class="i" d="M94.55,53.31l-.78-2.4s-.06-.07-.1-.07H87.83s-.07,0-.1.07L87,53.31a.27.27,0,0,1-.28.21h-.94a.22.22,0,0,1-.2-.08.24.24,0,0,1,0-.21L89.85,40a.26.26,0,0,1,.27-.21h1.26a.26.26,0,0,1,.27.21L96,53.23a.3.3,0,0,1,0,.1.17.17,0,0,1-.07.13.25.25,0,0,1-.17.06h-.94A.26.26,0,0,1,94.55,53.31ZM88.24,49.7h5c.08,0,.1,0,.08-.12l-2.55-8c0-.05,0-.08-.06-.08s0,0-.06.08l-2.53,8C88.15,49.66,88.17,49.7,88.24,49.7Z"/><path class="i" d="M100.64,53.23A3.63,3.63,0,0,1,99,51.94,3.24,3.24,0,0,1,98.42,50v-.55a.22.22,0,0,1,.25-.25h.85a.22.22,0,0,1,.25.25v.47a2.18,2.18,0,0,0,.94,1.83,4.13,4.13,0,0,0,2.53.7,3.57,3.57,0,0,0,2.29-.63,2.07,2.07,0,0,0,.79-1.7A1.94,1.94,0,0,0,106,49a3.8,3.8,0,0,0-1.11-.92,20,20,0,0,0-2.14-1,20.7,20.7,0,0,1-2.28-1,3.84,3.84,0,0,1-1.32-1.13,3,3,0,0,1-.5-1.76,3.1,3.1,0,0,1,1.15-2.56,4.94,4.94,0,0,1,3.17-.91,5.27,5.27,0,0,1,3.41,1,3.3,3.3,0,0,1,1.25,2.71v.37a.22.22,0,0,1-.25.25h-.86c-.17,0-.26-.08-.26-.25v-.3a2.31,2.31,0,0,0-.88-1.86,3.85,3.85,0,0,0-2.49-.72,3.49,3.49,0,0,0-2.13.56,2,2,0,0,0-.73,1.65,1.85,1.85,0,0,0,.36,1.17,3,3,0,0,0,1,.8c.45.23,1.14.53,2.07.89a21.48,21.48,0,0,1,2.31,1.1,4.41,4.41,0,0,1,1.41,1.25,3,3,0,0,1,.53,1.79,3.22,3.22,0,0,1-1.2,2.62,5.19,5.19,0,0,1-3.37,1A6.41,6.41,0,0,1,100.64,53.23Z"/><path class="i" d="M113.43,53.23a3.66,3.66,0,0,1-1.65-1.29A3.24,3.24,0,0,1,111.2,50v-.55c0-.17.09-.25.26-.25h.84a.22.22,0,0,1,.25.25v.47a2.19,2.19,0,0,0,1,1.83,4.1,4.1,0,0,0,2.52.7,3.6,3.6,0,0,0,2.3-.63,2.09,2.09,0,0,0,.78-1.7,1.94,1.94,0,0,0-.36-1.18,3.67,3.67,0,0,0-1.11-.92,19.65,19.65,0,0,0-2.13-1,21,21,0,0,1-2.29-1,3.8,3.8,0,0,1-1.31-1.13,2.91,2.91,0,0,1-.5-1.76,3.09,3.09,0,0,1,1.14-2.56,5,5,0,0,1,3.17-.91,5.23,5.23,0,0,1,3.41,1,3.31,3.31,0,0,1,1.26,2.71v.37c0,.17-.09.25-.26.25h-.86a.22.22,0,0,1-.25-.25v-.3a2.32,2.32,0,0,0-.89-1.86,3.85,3.85,0,0,0-2.49-.72,3.46,3.46,0,0,0-2.12.56,2,2,0,0,0-.74,1.65,1.85,1.85,0,0,0,.36,1.17,3,3,0,0,0,1,.8c.45.23,1.14.53,2.07.89a20.59,20.59,0,0,1,2.31,1.1A4.56,4.56,0,0,1,120,48.28a3,3,0,0,1,.53,1.79,3.23,3.23,0,0,1-1.21,2.62,5.16,5.16,0,0,1-3.36,1A6.38,6.38,0,0,1,113.43,53.23Z"/><path class="i" d="M132.46,53.33l-2.87-6a.11.11,0,0,0-.11-.08H126.2a.09.09,0,0,0-.1.1v6a.22.22,0,0,1-.25.25H125c-.17,0-.26-.08-.26-.25V40c0-.17.09-.25.26-.25h5a3.65,3.65,0,0,1,2.72,1,4.08,4.08,0,0,1,.31,5,3.52,3.52,0,0,1-2,1.24q-.1,0-.06.12l2.92,6a.41.41,0,0,1,0,.12c0,.11-.08.17-.24.17h-.9A.32.32,0,0,1,132.46,53.33ZM126.1,41.09V46a.09.09,0,0,0,.1.1h3.63a2.51,2.51,0,0,0,1.84-.69,2.49,2.49,0,0,0,.71-1.84,2.53,2.53,0,0,0-.71-1.85,2.46,2.46,0,0,0-1.84-.72H126.2A.09.09,0,0,0,126.1,41.09Z"/><path class="i" d="M139.79,53.11a4,4,0,0,1-1.64-1.6,4.82,4.82,0,0,1-.58-2.38V44.19a4.82,4.82,0,0,1,.58-2.38,4,4,0,0,1,1.64-1.6,5.57,5.57,0,0,1,4.91,0,4,4,0,0,1,1.65,1.6,4.82,4.82,0,0,1,.58,2.38v4.94a4.82,4.82,0,0,1-.58,2.38,4,4,0,0,1-1.65,1.6,5.57,5.57,0,0,1-4.91,0Zm4.84-1.53a3.24,3.24,0,0,0,.91-2.39v-5a3.28,3.28,0,0,0-.91-2.4,3.57,3.57,0,0,0-4.76,0,3.28,3.28,0,0,0-.9,2.4v5a3.37,3.37,0,0,0,5.66,2.39Z"/><path class="i" d="M153.28,53.11a4.07,4.07,0,0,1-1.64-1.6,4.82,4.82,0,0,1-.57-2.38V44.19a4.82,4.82,0,0,1,.57-2.38,4.07,4.07,0,0,1,1.64-1.6,5.57,5.57,0,0,1,4.91,0,4,4,0,0,1,1.65,1.6,4.72,4.72,0,0,1,.58,2.38v4.94a4.72,4.72,0,0,1-.58,2.38,4,4,0,0,1-1.65,1.6,5.57,5.57,0,0,1-4.91,0Zm4.84-1.53a3.2,3.2,0,0,0,.91-2.39v-5a3.24,3.24,0,0,0-.91-2.4,3.57,3.57,0,0,0-4.76,0,3.28,3.28,0,0,0-.9,2.4v5a3.37,3.37,0,0,0,5.66,2.39Z"/><path class="i" d="M165,53.27V40.05a.22.22,0,0,1,.25-.25h.92a.36.36,0,0,1,.3.17l3.59,5.67c0,.08.07.08.11,0L173.77,40a.36.36,0,0,1,.3-.17H175a.22.22,0,0,1,.25.25V53.27a.22.22,0,0,1-.25.25h-.89a.22.22,0,0,1-.25-.25V42.44s0-.07,0-.07-.05,0-.08.05l-3.1,4.91a.34.34,0,0,1-.29.17h-.45a.34.34,0,0,1-.29-.17l-3.1-4.91a.15.15,0,0,0-.08-.05s0,0,0,.07V53.27c0,.17-.09.25-.26.25h-.88A.22.22,0,0,1,165,53.27Z"/></svg>