<svg xmlns="http://www.w3.org/2000/svg" viewBox="0 0 122.71 119.1"><defs><style>.a{fill:#29abe2;}</style></defs><path class="a" d="M178,53.45l-.11,0a61.88,61.88,0,0,0-13.24,8.89l4.1,11.52a48.91,48.91,0,0,0-7.18,9.89l-12.93,1.08a59.26,59.26,0,0,0-3.82,14.27l10.76,6.28a47.41,47.41,0,0,0,1.49,13.68l-9,8.77a58.72,58.72,0,0,0,2.95,6.58,58.12,58.12,0,0,0,3.72,6.2l12.55-2a49.75,49.75,0,0,0,10.47,9.22l-1.11,12.18a62,62,0,0,0,14.06,5.38l8.49-9.58a51.53,51.53,0,0,0,12.41.13l7.14,10a62.62,62.62,0,0,0,15.16-5.25l.1-.06.2-12.89a50,50,0,0,0,7.56-6.14l12.16,3.21a59.76,59.76,0,0,0,8.87-14.61l-8.34-10.06a50,50,0,0,0,1.48-7.26l11.62-5.26a58.55,58.55,0,0,0-2.48-17.55L252.2,87.74c-.44-1-.89-2-1.4-3s-1.07-1.92-1.64-2.85l5.56-11.59a60.18,60.18,0,0,0-13.07-12.27l-11.17,6.09a51.27,51.27,0,0,0-6.89-3.1l-3.4-12.49A63.07,63.07,0,0,0,202.87,47l-4.49,11.5a50.32,50.32,0,0,0-9.51,2.37Zm48,43.67a22.4,22.4,0,0,1-10.12,30.47,23.48,23.48,0,0,1-31.2-9.89,22.4,22.4,0,0,1,10.12-30.47A23.47,23.47,0,0,1,226,97.12Z" transform="translate(-144.84 -46.92)"/></svg>