<svg xmlns="http://www.w3.org/2000/svg" viewBox="0 0 79.97 80.5"><defs><style>.a{fill:#fff;stroke:#7ad06d;stroke-miterlimit:10;stroke-width:9px;}.b{fill:#7ad06d;}</style></defs><path class="a" d="M75.47,40.25C75.47,60,59.8,76,40.47,76a34.31,34.31,0,0,1-18.12-5.16L6,74,9.84,57.55c-.11-.19-.21-.38-.31-.57A36.24,36.24,0,0,1,5.47,40.25c0-19.74,15.67-35.75,35-35.75S75.47,20.51,75.47,40.25Z"/><path class="b" d="M32.45,28.37a4.83,4.83,0,0,1,.94,2.87c-.15,1.44-2.78,4.21-2.78,4.21a2.1,2.1,0,0,0,.26,2.42A41.47,41.47,0,0,0,43.11,49.19s1.36,1.08,3.66-.16l2.37-2.33s.55-1.12,2.92-.5c0,0,6.46,1.56,8.35,2.75s.62,3.91.62,3.91a13.45,13.45,0,0,1-5.82,5.6,4.62,4.62,0,0,1-1.31.45,18.08,18.08,0,0,1-8.52-.43c-9.81-3-15.25-9.61-17.43-11.89-5.31-5.58-9-13.65-7.34-19.15s5.45-6.39,5.45-6.39a2.75,2.75,0,0,1,2.52,0C29.75,21.76,32.45,28.37,32.45,28.37Z"/></svg>